<svg width="500" height="500" viewBox="0 0 500 500" fill="none" xmlns="http://www.w3.org/2000/svg">
<rect width="500" height="500" rx="250" fill="#09100C"/>
<path d="M146.528 68.2652C146.989 65.1123 147.005 63.347 145.629 60.5235C140.638 57.4518 135.224 59.5991 130.37 61.929C106.759 74.311 82.9425 92.3937 73.6734 120.625L72.8556 123.317C69.0553 134.67 68.8599 145.231 69.0478 157.206C69.6969 178.685 79.8995 201.088 94.2076 215.742L96.215 217.692C112.148 233.602 132.261 246.157 154.052 248.905L157.309 249.151L156.41 251.117C146.568 257.619 138.294 265.447 130.738 274.883L128.559 277.66C126.965 279.64 125.442 281.602 124.028 283.739C122.6 286.704 122.695 289.168 123.168 292.406C125.456 294.909 125.456 294.909 131.086 297.237C151.16 304.72 173.682 305.41 193.015 295.013C202.433 289.103 213.416 280.795 216.774 268.996C216.606 265.863 216.606 265.863 215.202 263.467C213.012 261.931 213.012 261.931 210.204 261.562C207.325 261.973 207.325 261.973 204.494 265.602C198.562 273.267 192.759 278.419 184.525 283.021C171.502 289.714 154.7 289.801 141.137 284.541C155.674 264.636 174.869 256.362 197.327 252.541C199.727 252.136 202.126 251.729 204.525 251.318C206.36 251.004 208.195 250.694 210.032 250.396C217.279 249.224 224.148 247.644 231.118 245.162C242.061 241.196 256.056 236.492 267.139 242.254L268.715 243.252C280.697 255.228 280.697 255.228 287.74 271.797C288.545 273.591 289.35 275.385 290.161 277.176C297.488 293.34 304.666 309.585 311.84 325.83C310.043 325.83 310.043 325.83 308.078 327.551C299.518 337.416 295.603 350.909 294.84 364.22L294.77 366.136C286.911 360.17 278.372 356.743 269.265 353.738C258.047 350.089 246.548 346.842 236.371 340.331C225.625 332.262 221.347 320.436 218.29 307.091C217.497 303.369 217.497 303.369 216.606 300.27C215.186 298.089 214.539 297.448 212.138 296.964C208.958 297.049 207.256 296.738 204.926 299.287C203.684 311.159 207.544 322.157 212.113 332.712C223.044 354.45 223.044 354.45 266.551 368.398L268.715 369.086C267.819 370.072 266.921 371.054 266.02 372.035C252.296 386.165 242.544 402.627 237.803 422.663L237.27 425.121C215.911 424.689 194.668 416.615 176.125 405.317C140.816 382.89 115.569 349.167 104.913 305.767L104.301 303.22C100.038 285.783 98.7042 265.834 101.147 247.889C101.831 243.909 105.298 229.976 104.301 226C101.007 222.019 96 218 92.5 214C89.7337 228.237 85.8941 255.551 86.0313 270.113C86.832 313.019 101.937 355.941 130.454 386.055C131.765 387.414 133.075 388.773 134.365 390.155C139.497 395.665 144.822 400.76 150.584 405.472C175.674 425.479 213.251 446.17 245.356 440.85C247.623 439.382 248.745 438.429 249.781 435.752L250.322 433.262L250.953 430.5L251.018 430.2C252.681 422.557 254.329 414.976 257.572 407.925L258.832 405.459C262.39 398.448 265.993 391.976 271.407 386.504L273.207 384.815L275.036 383.064C278.736 379.756 281.717 377.538 286.684 377.933C291.929 382.298 291.929 382.298 296.174 387.887C298.033 390.274 299.552 391.926 301.901 393.785C304.511 395.46 304.511 395.46 306.239 396.965C318.3 407.373 331.211 411.995 346.474 411.755C359.282 411.229 368.612 406.862 377.433 396.742L379.223 394.645L381.581 392.065L383.715 389.73L385.287 388.183L386.972 386.474L388.523 384.949C393.088 378.475 393.088 378.475 392.98 363.35C392.952 361.202 392.924 359.054 392.915 356.905C392.879 342.171 391.443 333.653 381.918 322.881C369.386 305.291 369.386 305.291 361.254 284.541C366.879 286.26 372.274 287.842 378.14 287.851L380.065 287.798C391.64 287.611 402.772 285.952 413.083 279.81C415.16 277.66 415.16 277.66 415.722 274.342C414.696 267.832 414.696 267.832 405.878 258.482L403.481 256.032C396.492 248.874 389.442 243.373 380.862 238.694L378.324 237.354L378.843 237.054C390.561 230.292 402.558 223.369 411.026 211.89L412.465 209.828C415.037 206.33 417.42 202.782 419.653 199.014C429.344 181.333 434.072 159.476 430.02 138.914L429.535 137.08C428.436 132.506 427.242 127.99 425.813 123.525C416.963 98.5408 396.628 79.584 374.878 68.4157L372.485 67.2207L370.206 66.0814C365.563 63.8599 360.481 61.1798 355.47 63.2884C353.706 65.8364 353.336 67.9947 353.505 71.1761C354.342 74.163 354.342 74.1631 358.969 77.4969C369.97 85.1151 378.471 94.0037 384.357 106.832L385.512 109.554C390.293 120.196 389.937 132.341 389.106 143.962C384.978 157.512 378.78 166.225 367.122 172.724C357.697 176.962 343.069 177.855 333.424 173.666C317.472 165.919 301.488 158.654 283.876 164.053C278.866 165.964 274.365 167.071 269.157 165.808C256.959 161.527 242.229 160.21 229.896 164.664L226.657 166.02C223.01 167.531 219.382 169.084 215.773 170.698C207.937 174.231 200.108 177.827 192.095 180.858C175.329 186.254 158.742 187.987 143 179.5C140.888 178.211 135.495 174.323 133.258 173.308C132.577 173.023 132.661 172.776 132 172.5C132.129 172.075 131.476 171.742 131.552 171.492L120.473 159.691C119.632 158.476 118.813 157.243 118.002 156.005C110.449 143.294 109.71 128.607 112.05 113.886C116.116 99.1069 124.777 85.882 136.42 77.2972C140.232 74.6125 143.521 72.0055 146.528 68.2652Z" fill="#40916C"/>
<path d="M280.395 187.217C285.298 191.841 289.696 197.077 293.998 202.359C295.72 204.337 295.72 204.337 298.981 203.806C299.963 203.523 300.945 203.239 301.957 202.946C303.232 200.157 303.109 198.177 302.856 195.082C301.548 192.517 301.548 192.517 299.655 190.228C299.005 189.39 298.356 188.552 297.686 187.689C295.017 184.464 292.271 181.356 289.379 178.369C294.547 175.104 300.089 175.797 305.783 177.045C319.435 181.159 330.022 191.619 337.245 204.793C340.065 210.383 342.707 216.051 345.206 221.82C345.859 223.314 346.543 224.791 347.234 226.263C351.395 235.918 350.528 246.316 347.384 256.155C346.775 257.923 346.775 257.923 346.153 259.726C342.848 269.565 343.831 277.203 347.778 286.569C348.144 287.467 348.51 288.366 348.888 289.292C349.995 291.979 351.126 294.652 352.27 297.321C352.751 298.448 352.751 298.448 353.242 299.598C355.206 304.147 357.281 308.618 359.457 313.05C360.267 314.714 360.267 314.714 361.093 316.41C364.763 323.443 369.058 328.909 374.458 334.371C377.055 337.024 378.582 338.708 379.223 342.543C378.8 342.9 378.377 343.257 377.942 343.625C373.493 347.556 370.625 350.882 369.902 357.35C370.282 360.611 371.214 362.488 372.934 365.153C376.37 364.616 377.778 362.931 380.121 360.238C380.17 362.491 380.205 364.743 380.234 366.997C380.254 368.251 380.275 369.506 380.297 370.798C380.121 374.001 380.121 374.001 378.324 375.967C375.871 375.74 373.557 375.417 371.137 374.984C354.814 372.132 340.436 374.86 325.26 381.681C320.504 383.772 316.045 385.206 310.942 383.832C308.339 381.192 306.612 378.636 306.235 374.731C305.925 361.617 308.548 348.872 316.332 338.61C318.179 336.625 320.05 334.801 322.081 333.046C324.384 330.937 324.423 329.711 324.755 326.379C324.68 320.678 322.256 316.125 319.926 311.146C319.009 309.125 318.093 307.104 317.178 305.082C316.725 304.094 316.273 303.107 315.806 302.089C314.395 298.979 313.052 295.841 311.726 292.686C308.298 284.53 304.548 276.584 300.676 268.67C299.098 265.439 297.572 262.187 296.079 258.908C289.635 244.85 283.414 234.782 269.613 228.506C264.589 226.688 259.833 226.224 254.565 226.294C253.865 226.298 253.166 226.302 252.445 226.306C246.675 226.399 241.115 227.15 235.473 228.506C236.275 221.108 236.275 221.108 236.831 218.414C238.609 207.522 237.982 196.868 232.778 187.217C232.134 186.34 231.49 185.463 230.826 184.56C229.184 182.302 229.184 182.302 229.184 180.336C246.614 172.772 264.945 175.558 280.395 187.217Z" fill="#09100C"/>
<path d="M101.606 99.7236C101.902 100.372 102.199 101.021 102.504 101.69C101.858 103.305 101.211 104.92 100.56 106.532C97.9635 113.581 97.8345 120.791 97.7873 128.294C97.779 129.119 97.7707 129.943 97.7621 130.793C97.8263 144.853 102.312 157.151 109.692 168.539C110.075 169.142 110.458 169.745 110.853 170.367C121.378 185.249 139.121 194.32 155.67 197.616C172.999 199.708 188.323 197.126 204.645 190.842C208.995 189.195 212.921 188.213 217.504 189.183C221.815 191.489 223.366 195.329 224.934 200.089C227 209.086 226.178 218.427 221.996 226.54C216.106 234.82 207.66 236.104 198.637 237.354C196.277 237.475 193.94 237.56 191.579 237.588C190.919 237.598 190.258 237.607 189.578 237.617C161.676 237.942 161.676 237.942 148.324 233.422C147.614 233.184 146.904 232.947 146.172 232.702C131.564 227.657 118.336 220.224 106.996 208.845C106.145 207.993 105.294 207.142 104.417 206.264C91.9971 193.283 83.1876 175.71 82.3173 156.665C82.2868 154.643 82.2778 152.62 82.2893 150.598C82.2944 149.529 82.2996 148.459 82.3048 147.358C82.6892 128.251 90.3334 113.932 101.606 99.7236Z" fill="#09100C"/>
<path d="M398.09 104.639C410.157 113.881 414.711 130.39 417.403 145.505C419.817 163.482 415.594 181.766 405.839 196.433C394.879 211.509 380.144 222.451 363.051 227.523C362.162 227.523 361.272 227.523 360.356 227.523C360.115 226.854 359.874 226.185 359.626 225.495C355.25 213.652 350.024 202.21 344.184 191.149C345.055 191.135 345.926 191.121 346.823 191.107C361.972 190.616 377.039 186.014 388.355 174.391C399.655 161.237 402.979 145.35 402.786 127.772C402.615 122.097 401.463 116.912 399.887 111.52C399.528 110.128 399.172 108.736 398.82 107.342C398.579 106.45 398.338 105.558 398.09 104.639Z" fill="#09100C"/>
<path d="M362.153 247.185C375.974 249.345 389.76 258.625 398.09 270.778C387.646 274.846 376.408 275.72 366.062 270.932C363.167 269.374 360.4 267.728 357.66 265.863C358.238 261.487 359.194 257.42 360.412 253.206C360.737 252.073 361.063 250.94 361.398 249.773C361.771 248.492 361.771 248.492 362.153 247.185Z" fill="#09100C"/>
<path d="M266.918 256.032C272.367 260.642 275.956 266.814 278.598 273.728C278.598 275.025 278.598 276.323 278.598 277.66C272.646 278.889 272.646 278.889 269.613 276.677C267.455 276.845 265.301 277.103 263.156 277.414C258.801 277.89 255.505 278.025 251.813 275.141C249.046 272.353 248.264 269.773 247.153 265.863C245.378 264.833 243.581 263.846 241.762 262.914C240.976 260.763 240.976 260.763 240.863 258.981C248.933 252.674 257.938 250.285 266.918 256.032Z" fill="#40916C"/>
<path d="M328.91 340.576C329.425 340.863 329.939 341.149 330.469 341.444C332.4 342.486 334.348 343.445 336.322 344.386C337.745 345.082 339.168 345.778 340.59 346.475C341.259 346.79 341.929 347.106 342.619 347.431C346.466 349.349 348.893 350.785 350.473 355.322C350.95 358.388 351.049 360.26 349.462 362.907C348.358 364.365 347.174 365.748 345.981 367.119C341.816 366.503 341.816 366.503 340.236 364.731C338.542 362.918 337.072 362.308 334.863 361.405C330.624 359.396 328.621 357.716 326.215 353.356C325.407 350.348 325.013 347.637 325.317 344.508C327.057 341.989 327.057 341.989 328.91 340.576Z" fill="#40916C"/>
<path d="M353.659 386.685C354.418 386.688 355.177 386.691 355.958 386.694C357.134 386.707 357.134 386.707 358.334 386.719C359.531 386.726 359.531 386.726 360.752 386.733C362.716 386.744 364.681 386.76 366.645 386.781C366.645 387.754 366.645 388.727 366.645 389.73C358.957 397.545 350.318 397.927 340.309 397.794C336.086 397.54 332.097 396.806 328.012 395.628C328.012 394.98 328.012 394.331 328.012 393.662C330.931 392.698 333.851 391.736 336.772 390.775C337.599 390.501 338.425 390.228 339.277 389.947C340.077 389.684 340.876 389.421 341.699 389.15C342.433 388.908 343.167 388.666 343.923 388.417C347.282 387.351 350.145 386.659 353.659 386.685Z" fill="#09100C"/>
</svg>
